<svg xmlns="http://www.w3.org/2000/svg" viewBox="0 0 1543 300">
  <path
    d="M765.2 290l-64.7-90.4h-.7V290h-68.4V10H723c29.1 0 51.4 3.7 66.2 10.3 30.2 13.6 51.4 46.6 51.4 86.2 0 44.2-26.5 80.6-69.6 88.2l76 95.3h-81.8zm-38.9-139.3c28.4 0 45.8-13.3 45.8-40.1 0-24.3-18.2-37.8-45-37.8h-27.3v77.9h26.5zm193.5-.3c0-79.8 60.1-140.4 142.1-140.4 82.4 0 142.5 60.5 142.5 140.4S1144.2 290 1065.2 290c-85.3 0-145.4-59.7-145.4-139.6zm142.3-79.8c-43.4 0-73.6 38-73.6 79.8s30.8 79.8 73.5 79.8h.2c42.7 0 73.5-38 73.5-79.8s-30.2-79.8-73.6-79.8m-880.3 65.5C199.3 123.4 215 104 215 80.2c0-23.3-12.4-42.4-25.2-54.1-13.5-12.4-24-16-47.4-16.1H14.9v280h102.7c44.2 0 58.6-3.5 80.5-18.9 21.2-14.7 32.6-39.4 32.6-66.3 0-30.1-17.3-51-48.9-68.7zM78.1 56.9h38.1c17.2 0 31.5 14 31.2 31.2-.3 16.7-13.9 30.1-30.6 30.1H78.1V56.9zm82.5 145.6c0 20.7-16.8 37.4-37.4 37.4H78.1V165h45.1c20.7-.1 37.4 16.7 37.4 37.5zM451.5 10l-41.6 112.4L368.3 10h-77.7l83.6 178.3V290h71.2V188.3L529.2 10h-77.7zm1014.4 280l-107.4-171 1.9 85.5V290H1292V10h61.7l107.8 175.3-1.9-87.6V10h68.5v280h-62.2z" />
</svg>
