<svg viewBox="0 0 500 500" xmlns="http://www.w3.org/2000/svg"><path d="m357.33 225.89c30.43-22 57.61-55.71 57.61-97.08 0-40.4-21.53-73.48-43.68-93.89-23.33-21.5-41.52-27.69-82.12-27.86h-221.34v485.87h178.07c76.82 0 101.77-5.91 139.85-32.83 36.77-25.61 56.47-68.28 56.47-114.9.01-52.27-29.86-88.61-84.86-119.31zm-179.88-137.48h65.98c29.79 0 54.74 24.38 54.17 54.17-.55 28.86-24.12 52.09-53.12 52.09h-67.03zm143.24 252.49c0 35.91-29.11 65.02-65.02 65.02h-78.22v-130.04h78.22c35.91 0 65.02 29.11 65.02 65.02z"/></svg>