<svg height="700pt" preserveAspectRatio="xMidYMid meet" viewBox="0 0 700 700" width="700pt" xmlns="http://www.w3.org/2000/svg"><path d="m1013 6902-63-3v-3399-3400h73c717-2 2740 2 2822 5 143 4 342 15 380 20 17 2 73 9 125 16 52 6 104 13 115 15 11 3 36 7 55 10 202 31 492 143 681 261 329 206 511 376 672 623 138 213 249 498 283 728 3 20 7 44 9 52 19 70 27 422 13 550-12 99-44 237-79 335-138 392-460 741-964 1044-66 40-122 74-124 77-3 2 6 12 19 21s65 51 114 92c224 187 407 413 516 636 46 93 103 246 113 305 3 14 8 36 11 50 23 103 29 353 11 465-20 124-24 146-41 205-9 30-17 62-19 70-3 13-24 69-58 155-44 108-191 359-253 431-11 12-39 46-64 75-83 98-194 203-331 311-64 51-205 125-307 161-56 20-102 35-102 32 0-2-10-1-23 4-54 21-255 43-432 47-205 6-3049 11-3152 6zm2475-1146c274-25 522-212 628-474 56-139 64-344 19-472-8-22-12-40-10-40s-10-28-27-62c-85-177-234-317-406-382-66-25-85-30-172-44-25-4-268-8-540-7h-495v739c0 685 1 739 17 745 22 8 891 5 986-3zm247-2630c142-33 256-78 342-137 217-147 355-358 401-614 13-75 6-286-12-355-101-383-397-647-781-697-86-11-1186-9-1193 2-4 6-7 416-7 912v902l610-3c336-2 624-6 640-10z" transform="matrix(.1 0 0 -.1 0 700)"/></svg>